<svg id="Layer_1" data-name="Layer 1" xmlns="http://www.w3.org/2000/svg" viewBox="0 0 370.65 293.3"><defs><style>.cls-1{opacity:0.04;}.cls-2,.cls-3{fill:none;stroke-miterlimit:10;}.cls-2{stroke:#808285;}.cls-3{stroke:#fff;}</style></defs><title>Artboard 1</title><g class="cls-1"><path class="cls-2" d="M254.56,7.38c6.1.76,12.95,2.2,16.15,7.45,2.65,4.33,1.85,10-.51,14.54s-6.05,8.11-9.38,11.94A91.39,91.39,0,0,0,239,108c.66,7.86,2.1,16.67-2.72,22.92-7.11,9.2-21.48,5.85-32.44,1.95A586,586,0,0,0,56.75,101c-17.52-1.49-37.2-3.16-48.57-16.58s-9.41-34.64,1.07-48.7S36.82,14,54,10.38s34.84-3.51,52.29-5.2C123.93,3.47,141-.31,158.76.66,190.72,2.4,222.85,3.42,254.56,7.38Z"/><path class="cls-2" d="M28.18,42C35.93,32,47.52,25.6,59.83,21.88c2.75-.83,5.54-1.53,8.33-2.1,15.3-3.16,31-3.17,46.59-4.67s30.75-4.83,46.46-4c28.29,1.53,56.73,2.47,84.79,6,5.39.68,11.43,2,14.31,6.58,2.4,3.84,1.8,8.89-.18,12.88s-5.12,7.21-8,10.64a85.08,85.08,0,0,0-18.58,59.66c.53,7,1.7,14.89-2.66,20.43-6.4,8.14-19.17,5.19-29,1.72q-6.42-2.28-12.9-4.41A532.37,532.37,0,0,0,102.2,104q-15.61-2.36-31.34-3.77c-15.61-1.41-33.1-3-43.33-14.84S18.55,54.54,28.18,42Z"/><path class="cls-2" d="M47.12,48.3C54.05,39.67,64.24,34.22,75,31c2.42-.72,4.87-1.33,7.32-1.83,13.43-2.76,27.23-2.81,40.88-4.13S150,20.87,163.66,21.6C188.29,22.92,213,23.77,237.44,27c4.69.61,9.92,1.75,12.47,5.72,2.15,3.35,1.75,7.72.16,11.21s-4.2,6.32-6.54,9.33a76.5,76.5,0,0,0-15,38.07,82.35,82.35,0,0,0-.35,14.56c.4,6.22,1.31,13.1-2.6,17.94-5.68,7.09-16.86,4.53-25.46,1.49q-5.66-2-11.34-3.88A480,480,0,0,0,112.47,103Q98.78,100.84,85,99.49c-13.7-1.33-29-2.81-38.09-13.1S38.31,59.28,47.12,48.3Z"/><path class="cls-2" d="M66.06,54.57c6.09-7.2,14.9-11.74,24.16-14.46,2.08-.61,4.19-1.12,6.3-1.55C108.07,36.21,120,36.11,131.68,35c11.57-1.12,22.8-3.51,34.43-2.89,21,1.1,42,1.87,62.77,4.67,4,.53,8.41,1.53,10.62,4.86,1.91,2.85,1.71,6.55.5,9.53s-3.27,5.43-5.12,8c-6.5,9.17-10.58,20.81-11.84,33a80.71,80.71,0,0,0-.33,12.63c.28,5.39.9,11.3-2.54,15.45-5,6-14.55,3.86-22,1.25-3.25-1.14-6.51-2.27-9.77-3.35a427.35,427.35,0,0,0-65.68-16.2Q111,100,99.08,98.73c-11.79-1.26-24.89-2.66-32.85-11.36S58.07,64,66.06,54.57Z"/><path class="cls-2" d="M85,60.85c5.25-5.79,12.68-9.4,20.41-11.62,1.75-.5,3.52-.92,5.29-1.28,9.68-1.94,19.62-2.1,29.45-3.05,9.55-.92,18.81-2.84,28.41-2.35,17.3.89,34.67,1.57,51.76,4,3.29.46,6.9,1.3,8.78,4a8.86,8.86,0,0,1,.84,7.87,33,33,0,0,1-3.71,6.73c-4.77,7.74-7.71,17.57-8.65,27.87a84.94,84.94,0,0,0-.31,10.7c.15,4.57.49,9.52-2.48,13-4.27,5-12.24,3.2-18.49,1q-4.1-1.44-8.21-2.82a377.31,377.31,0,0,0-55.08-14c-6.58-1.15-13.2-2.12-19.82-2.92-9.88-1.18-20.79-2.49-27.62-9.62S77.82,68.77,85,60.85Z"/><path class="cls-2" d="M103.94,67.12c4.38-4.37,10.47-7.05,16.66-8.78,1.42-.38,2.84-.72,4.27-1,7.82-1.54,15.82-1.74,23.75-2.5,7.52-.73,14.83-2.19,22.39-1.81,13.63.67,27.32,1.27,40.75,3.29,2.58.39,5.39,1.09,6.94,3.14a7.53,7.53,0,0,1,1.17,6.2,25.91,25.91,0,0,1-2.28,5.43c-3,6.3-4.86,14.32-5.48,22.77-.21,2.9-.31,5.87-.28,8.76,0,3.75.09,7.73-2.42,10.47-3.56,3.89-9.92,2.54-15,.79-2.22-.77-4.44-1.54-6.65-2.29a328.83,328.83,0,0,0-44.48-11.76q-8-1.52-16-2.64c-8-1.11-16.7-2.32-22.38-7.88S97.54,73.51,103.94,67.12Z"/><path class="cls-2" d="M122.88,73.39c3.48-3,8.25-4.71,12.92-5.93,1.08-.28,2.16-.52,3.25-.73,5.94-1.13,12-1.38,18-2,5.49-.53,10.85-1.53,16.37-1.27,10,.46,20,1,29.74,2.61,1.88.31,3.89.86,5.09,2.28a6.51,6.51,0,0,1,1.51,4.52,18.58,18.58,0,0,1-.86,4.14,86.71,86.71,0,0,0-2.29,17.66c-.11,2.26-.19,4.59-.26,6.84-.1,2.92-.3,5.94-2.36,8-2.84,2.83-7.61,1.88-11.52.56l-5.08-1.76a288,288,0,0,0-33.87-9.53q-6.06-1.32-12.15-2.36c-6-1-12.61-2.16-17.14-6.15C119.55,86.13,117.23,78.24,122.88,73.39Z"/><path class="cls-2" d="M141.82,79.67c2.52-1.64,6-2.38,9.17-3.1.74-.16,1.49-.31,2.24-.44,4.07-.73,8.2-1,12.33-1.43A76.29,76.29,0,0,1,175.91,74a116.83,116.83,0,0,1,18.73,1.93,6.7,6.7,0,0,1,3.25,1.41,7,7,0,0,1,1.85,2.86A15.57,15.57,0,0,1,200.3,83a106.83,106.83,0,0,1,.89,12.57,47,47,0,0,1-.24,4.9c-.23,2.09-.7,4.16-2.3,5.49-2.12,1.77-5.3,1.21-8,.32-1.18-.39-2.36-.82-3.52-1.24q-11.5-4.17-23.27-7.3-4.16-1.11-8.32-2.08c-4.13-1-8.51-2-11.9-4.41C140,88.65,136.84,82.9,141.82,79.67Z"/><path class="cls-2" d="M174,84.63c4.55-.42,9.29-.24,13.46,1.61s7.71,5.65,8.24,10.19c.27,2.27-.42,4.89-2.44,6s-4.42.22-6.51-.62L174.1,96.69,163,92.22c-2.56-1-6.64-5-2.2-6.28,1.52-.43,3.81,0,5.43-.25C168.8,85.33,171.4,84.88,174,84.63Z"/></g><g class="cls-1"><path class="cls-3" d="M217.24,228.27c-6.19,2-11.9,6.85-13,13.27-.47,2.86.1,6,2.17,8.08,1.75,1.72,4.27,2.37,6.68,2.78,4.1.71,8.41.92,12.33-.45,6.88-2.38,16.05-13,16.65-20.55C242.74,223.32,222.32,226.63,217.24,228.27Z"/><path class="cls-3" d="M217.28,223.36a27.83,27.83,0,0,0-11.68,7.13,21.85,21.85,0,0,0-5.44,10.27,20.68,20.68,0,0,0-.28,8.28,7.72,7.72,0,0,0,2.13,4.38,10.23,10.23,0,0,0,4.21,2.15,31.87,31.87,0,0,0,4.35.86c5.16.69,10.51.76,15.45-.93s10-5.65,13.84-10.66a35.68,35.68,0,0,0,5.45-10.31c1.18-3.56,1.54-7.27.64-10-1.32-4-6.43-5.25-12.65-4.88S220.7,222.27,217.28,223.36Z"/><path class="cls-3" d="M217.32,218.44a34.14,34.14,0,0,0-14.49,8.81A29.15,29.15,0,0,0,196.05,240a32.15,32.15,0,0,0-1,11.18c.22,2.22.84,4.55,2.55,6.06a11.74,11.74,0,0,0,5.16,2.37,44,44,0,0,0,5.26.86c6.22.69,12.63.61,18.57-1.4,6.83-2.29,13.46-7.56,18.12-14.25a40.59,40.59,0,0,0,6.18-14.1c1.07-4.7,1.69-10.07-1.09-13-1.75-4.11-8.1-5.22-14.79-4.54C228,213.86,221.65,217.07,217.32,218.44Z"/><path class="cls-3" d="M217.36,213.52A40.62,40.62,0,0,0,200.07,224a36.27,36.27,0,0,0-8.13,15.2,43.77,43.77,0,0,0-1.74,14.07c.15,2.82.78,5.87,3,7.75a13.21,13.21,0,0,0,6.12,2.57,60.27,60.27,0,0,0,6.17.88c7.29.67,14.75.45,21.69-1.88,8.72-2.91,16.91-9.47,22.4-17.84a46.67,46.67,0,0,0,6.92-17.89c1-5.84.86-12.08-2.82-16-3.39-3.65-9.79-5.2-16.95-4.21C229.05,207.68,222.6,211.88,217.36,213.52Z"/><path class="cls-3" d="M217.4,208.61c-7.41,2.32-14.8,6.46-20.1,12.16a43.67,43.67,0,0,0-9.47,17.66,56.52,56.52,0,0,0-2.48,17c.08,3.43.73,7.18,3.39,9.43a14.72,14.72,0,0,0,7.07,2.79c2.33.41,4.71.69,7.08.88,8.36.67,16.87.3,24.82-2.36,10.6-3.52,20.32-11.39,26.67-21.42A53.38,53.38,0,0,0,262,223.05c.86-7,.68-14.66-4.54-19.07-4.3-3.63-11.47-5.16-19.1-3.87C230.06,201.51,223.55,206.69,217.4,208.61Z"/><path class="cls-3" d="M217.44,203.69c-8.43,2.64-16.89,7.34-22.91,13.85-5.22,5.65-8.59,12.75-10.81,20.11a68.86,68.86,0,0,0-3.21,19.87c0,4,.68,8.5,3.8,11.11,2.24,1.87,5.17,2.54,8,3,2.63.42,5.31.71,8,.89,9.42.67,19,.15,27.94-2.83a58.93,58.93,0,0,0,31-25,60,60,0,0,0,8.38-25.46c.77-8.13.52-17.32-6.26-22.09-5.23-3.68-13.15-5.12-21.25-3.55C231.08,195.34,224.5,201.49,217.44,203.69Z"/><path class="cls-3" d="M217.48,198.78c-9.45,2.94-19,8.21-25.71,15.52-5.86,6.35-9.61,14.33-12.17,22.57a82.13,82.13,0,0,0-3.93,22.78c-.07,4.63.62,9.81,4.22,12.79,2.49,2.06,5.79,2.74,9,3.21,2.93.42,5.92.71,8.89.9,10.49.65,21.11,0,31.06-3.31a66.12,66.12,0,0,0,35.23-28.61,66.9,66.9,0,0,0,9.12-29.24c.67-9.28.35-20-8-25.12-6.17-3.76-14.83-5.07-23.41-3.21C232.1,189.17,225.45,196.3,217.48,198.78Z"/><path class="cls-3" d="M217.52,193.86C207,197.12,196.47,203,189,211.06c-6.48,7-10.62,15.92-13.51,25a94.37,94.37,0,0,0-4.66,25.68c-.15,5.24.56,11.13,4.63,14.47,2.76,2.27,6.42,2.95,9.95,3.42,3.24.43,6.52.73,9.8.91,11.56.65,23.23-.16,34.19-3.79a72.77,72.77,0,0,0,49.35-65.21c.58-10.43.19-22.79-9.71-28.16-7.12-3.85-16.51-5-25.56-2.87C233.11,183,226.4,191.11,217.52,193.86Z"/><path class="cls-3" d="M217.56,189c-11.5,3.57-23.13,10-31.33,18.88-7.11,7.73-11.64,17.49-14.85,27.48A106.65,106.65,0,0,0,166,263.89c-.22,5.85.49,12.45,5,16.16,3,2.46,7,3.16,10.9,3.63,3.55.43,7.13.74,10.72.92,12.61.63,25.34-.31,37.3-4.27a79.68,79.68,0,0,0,54.36-72.59c.5-11.57,0-25.56-11.44-31.18a40.79,40.79,0,0,0-27.7-2.54C234.13,176.85,227.35,185.91,217.56,189Z"/><path class="cls-3" d="M217.6,184c-12.53,3.88-25.22,10.85-34.13,20.56-7.74,8.43-12.65,19.07-16.2,29.95A119.29,119.29,0,0,0,161.15,266c-.3,6.45.44,13.77,5.46,17.84,3.28,2.66,7.67,3.37,11.86,3.84,3.85.44,7.74.75,11.63.93,13.68.63,27.46-.46,40.42-4.74a86.66,86.66,0,0,0,59.38-80c.4-12.71-.16-28.34-13.17-34.21a44.9,44.9,0,0,0-29.86-2.2C235.16,170.71,228.3,180.72,217.6,184Z"/><path class="cls-3" d="M180.7,201.35c-8.36,9.13-13.66,20.66-17.54,32.41a132.46,132.46,0,0,0-6.85,34.37c-.38,7.06.38,15.08,5.88,19.52,3.53,2.86,8.29,3.58,12.81,4.06,18.79,2,38.14,1.63,56.09-4.28a93.64,93.64,0,0,0,64.38-87.34c.3-13.87-.33-31.14-14.89-37.24a48.74,48.74,0,0,0-32-1.87c-12.39,3.56-19.32,14.55-30.93,18.14C204.09,183.31,190.34,190.84,180.7,201.35Z"/></g><g class="cls-1"><path class="cls-3" d="M280.3,39.69q2.26-.94,4.59-1.67c11.35-3.53,22.58-3.07,31.6,1.29C327,44.39,334,54.41,339.57,63.55A226.68,226.68,0,0,1,366,128c4.68,19.53,5.35,35,2.1,48.71-4.12,17.4-15.53,31.58-29.75,37.07-8.31,3.19-17.17,3.23-24.3.11-12.28-5.37-13.27-15.54-14.33-26.32a63.36,63.36,0,0,0-15.87-36.07h0a127.44,127.44,0,0,0-12-11.22,117.21,117.21,0,0,1-13.11-12.42,57.15,57.15,0,0,1-13.5-42.25,54.74,54.74,0,0,1,12.83-29.53A58.73,58.73,0,0,1,280.3,39.69Z"/><path class="cls-3" d="M264.19,63.68a52.26,52.26,0,0,1,19.63-14.6c1.34-.56,2.69-1,4.06-1.49a45.39,45.39,0,0,1,11.85-2.11,34.76,34.76,0,0,1,16.12,3.13c9.57,4.48,16,13.61,21,21.85h0a202.24,202.24,0,0,1,23.6,58.18c4.11,17.26,4.69,31,1.84,43.1-3.62,15.41-13.69,27.85-26.13,32.9-7.41,3-15.35,3.32-21.87.59-11-4.63-12.08-13.66-13.18-23.26a59.34,59.34,0,0,0-14.31-32.34h0c-.92-1-1.88-2-2.87-3-2.49-2.5-5.16-4.84-7.75-7.13a105.67,105.67,0,0,1-11.54-11.26,52.38,52.38,0,0,1-11.86-38A49.41,49.41,0,0,1,264.19,63.68Z"/><path class="cls-3" d="M270.31,71.27a45.5,45.5,0,0,1,17-12.79c1.16-.49,2.33-.93,3.52-1.31a39.46,39.46,0,0,1,10.3-1.9,31,31,0,0,1,14.05,2.63c8.64,3.89,14.52,12.12,18.91,19.47h0a180.72,180.72,0,0,1,20.73,51.9c3.47,15,4,26.93,1.58,37.5-3.12,13.41-11.85,24.11-22.51,28.73-6.53,2.84-13.54,3.4-19.44,1.05-9.74-3.88-10.91-11.77-12-20.2a55.88,55.88,0,0,0-12.75-28.6h0c-.8-.93-1.64-1.83-2.49-2.72-2.17-2.23-4.47-4.34-6.72-6.4a96.12,96.12,0,0,1-10-10.11,47.57,47.57,0,0,1-10.21-33.68A44,44,0,0,1,270.31,71.27Z"/><path class="cls-3" d="M276.43,78.86a38.62,38.62,0,0,1,14.44-11c1-.43,2-.81,3-1.14a33.41,33.41,0,0,1,8.76-1.67,26.9,26.9,0,0,1,12,2.13c7.72,3.29,13,10.62,16.82,17.08h0a157.84,157.84,0,0,1,17.86,45.62c2.87,12.75,3.38,22.89,1.32,31.9-2.62,11.41-10,20.39-18.89,24.56-5.65,2.66-11.72,3.49-17,1.52-8.47-3.16-9.73-9.89-10.88-17.14a53.08,53.08,0,0,0-11.19-24.87h0c-.68-.81-1.39-1.61-2.12-2.4-1.83-2-3.78-3.84-5.67-5.67a81.91,81.91,0,0,1-8.39-9,42.8,42.8,0,0,1-8.56-29.41A38.4,38.4,0,0,1,276.43,78.86Z"/><path class="cls-3" d="M282.55,86.44a32.1,32.1,0,0,1,11.84-9.16c.81-.36,1.64-.69,2.47-1a27.66,27.66,0,0,1,7.2-1.45A22.86,22.86,0,0,1,314,76.49c6.81,2.7,11.49,9.14,14.74,14.7h0c6.64,11.19,11.9,25.13,15,39.33,2.28,10.5,2.73,18.87,1.06,26.3a30.52,30.52,0,0,1-15.27,20.4c-4.77,2.49-9.9,3.56-14.58,2-7.19-2.43-8.55-8-9.73-14.08A51.26,51.26,0,0,0,295.53,144h0c-.56-.71-1.15-1.4-1.74-2.09-1.5-1.7-3.09-3.34-4.64-4.94a70.63,70.63,0,0,1-6.8-7.8,38.26,38.26,0,0,1-6.93-25.12A33.1,33.1,0,0,1,282.55,86.44Z"/><path class="cls-3" d="M288.66,94a25.3,25.3,0,0,1,9.26-7.35c.63-.3,1.28-.56,1.93-.8a22,22,0,0,1,5.66-1.23,19,19,0,0,1,7.81,1.14c5.9,2.09,10,7.64,12.66,12.31h0c5.26,9,9.62,21,12.11,33.05,1.69,8.24,2.07,14.83.79,20.7a25.21,25.21,0,0,1-11.64,16.23c-3.91,2.34-8.07,3.64-12.15,2.45-5.9-1.72-7.36-6.11-8.58-11a52.38,52.38,0,0,0-8.08-17.39h0c-.43-.6-.89-1.18-1.36-1.76-1.17-1.45-2.4-2.84-3.59-4.22a58.9,58.9,0,0,1-5.23-6.65A34,34,0,0,1,283,108.66,27.82,27.82,0,0,1,288.66,94Z"/><path class="cls-3" d="M294.78,101.62a18.73,18.73,0,0,1,6.66-5.54c.46-.23.93-.44,1.4-.62a15.56,15.56,0,0,1,4.11-1,14.76,14.76,0,0,1,5.73.64c5,1.48,8.46,6.16,10.58,9.93h0c3.9,6.77,7.36,16.83,9.24,26.77,1.12,6,1.41,10.79.53,15.1a20,20,0,0,1-8,12.06c-3.05,2.22-6.24,3.7-9.72,2.91-4.6-1-6.16-4.21-7.44-8a65.84,65.84,0,0,0-6.51-13.65h0c-.32-.48-.64-1-1-1.44-.84-1.19-1.71-2.34-2.55-3.49a49.42,49.42,0,0,1-3.66-5.49,30.67,30.67,0,0,1-3.64-16.56A22.67,22.67,0,0,1,294.78,101.62Z"/><path class="cls-3" d="M300.9,109.21a12.31,12.31,0,0,1,4.07-3.73,7.84,7.84,0,0,1,.86-.45,10.51,10.51,0,0,1,2.56-.8,10.18,10.18,0,0,1,3.66.15c4.14.8,6.94,4.66,8.49,7.54h0c2.53,4.56,5.13,12.68,6.36,20.49a28.61,28.61,0,0,1,.28,9.49,14.92,14.92,0,0,1-4.4,7.9c-2.17,2.18-4.39,3.73-7.29,3.38-3.28-.4-4.95-2.33-6.29-4.9-1.46-2.82-3.1-6.27-4.95-9.92h0l-.6-1.12c-.51-.92-1-1.84-1.52-2.76a42.21,42.21,0,0,1-2.07-4.34,29.45,29.45,0,0,1-2-12.27A17.68,17.68,0,0,1,300.9,109.21Z"/><path class="cls-3" d="M309.84,114a4.37,4.37,0,0,1,1.57-.34c3.29-.14,5.43,3.17,6.41,5.15h0A45.79,45.79,0,0,1,321.31,133a17.91,17.91,0,0,1-.76,7.62,5.45,5.45,0,0,1-4.87,3.84c-4.08.33-7.11-2.72-8.75-8.81a48.53,48.53,0,0,1-1.32-13.21,13.71,13.71,0,0,1,1.41-5.69A5.84,5.84,0,0,1,309.84,114Z"/></g></svg>