
<svg width="919px" height="1039px" viewBox="0 0 919 1039" version="1.1" xmlns="http://www.w3.org/2000/svg" xmlns:xlink="http://www.w3.org/1999/xlink">
    <defs>
        <polygon id="path-1" points="0 0.529340276 188.016625 0.529340276 188.016625 299.287855 0 299.287855"></polygon>
    </defs>
    <g id="Symbols" stroke="none" stroke-width="1" fill="none" fill-rule="evenodd" opacity="0.1">
        <g id="Components/Page-Frame" transform="translate(-341.000000, -317.000000)">
            <g id="Background" transform="translate(305.000000, 318.000000)">
                <g id="Topo">
                    <g id="Topo-graphics" transform="translate(812.395419, 570.147651) rotate(20.000000) translate(-812.395419, -570.147651) translate(708.395419, 336.647651)" stroke="#808184">
                        <path d="M44.5663282,153.350156 C52.0172,187.877177 53.6972442,223.584239 55.345459,259.051895 C57.4946424,305.243409 59.3974932,353.167915 43.8453208,396.04172 C40.5198295,405.208665 36.3335578,414.750936 37.8087861,424.501723 C39.0459851,432.675517 44.1428574,439.507091 49.9053816,444.735416 C62.7824918,456.418443 79.3241467,461.856827 95.7038863,464.831643 C112.659325,467.911489 131.507927,468.153985 145.309476,456.738166 C157.711912,446.480765 163.34435,429.013373 166.902335,412.248754 C174.225889,377.740268 175.553041,342.01776 180.929459,307.06753 C185.976512,274.267324 194.56771,242.284188 200.731563,209.723387 C206.896799,177.162587 210.622235,143.466537 205.788302,110.626172 C200.954369,77.7873518 186.711358,45.6482155 162.57629,26.1033947 C141.420741,8.97117149 114.678422,2.81920205 88.6100585,0.687713771 C68.7193863,-0.93870446 47.9457912,-0.288446079 30.0008704,9.42218205 C19.3116926,15.206547 9.87078487,24.778165 4.31307668,36.5708556 C-2.74061821,51.5391548 -0.942943174,57.5428468 8.24609627,69.0297152 C26.9134085,92.3648782 38.0800288,123.291537 44.5663282,153.350156 Z" id="Stroke-1"></path>
                        <path d="M39.7683368,28.5069942 C30.7550959,34.1534821 22.7807816,42.8661317 18.2713981,53.3756013 C15.4198761,60.0246069 14.4445009,64.7133048 15.2982996,68.9994533 C16.1230857,73.1961465 18.6043519,77.0581529 22.5915091,82.0506908 C39.1300601,102.754994 49.3424875,130.011135 55.3992085,156.778357 C59.151502,173.427861 61.3951413,190.444442 62.8720197,207.636848 C64.0864033,221.871056 64.7799421,236.276464 65.4154557,250.700379 C67.2308141,291.638573 68.4935521,334.385926 55.034479,372.614237 C52.1511814,380.810205 48.5411877,389.305385 49.6339948,397.950172 C50.5416741,405.225365 54.8272463,411.163355 59.314525,416.148181 C65.2496695,422.743205 72.5484052,428.594823 81.1167866,432.043484 C87.615604,434.666995 94.6421741,435.522991 101.207306,436.092113 C116.071417,437.379962 132.098794,437.083834 143.927636,426.57128 C154.576634,417.068955 159.570942,401.554609 162.813443,386.617096 C169.490481,355.869108 171.073738,324.07079 175.895353,292.890949 C180.419933,263.629772 187.778076,235.02563 192.982379,205.931026 C198.170105,177.306833 201.241293,147.704801 197.010983,118.863139 C192.77791,90.0075963 180.389539,61.9879991 159.772649,44.170947 C140.917236,27.874637 116.742851,20.8014893 92.8281972,18.754811 C88.0383588,18.3445499 83.1918767,18.1270807 78.3481577,18.2103668 C64.7343509,18.4432594 51.2324497,21.3243409 39.7683368,28.5069942 Z" id="Stroke-3"></path>
                        <path d="M49.6963432,47.6301508 C42.3123795,53.1131215 35.7605679,61.0067485 32.2807849,70.2591652 C30.1171892,76.012043 29.4805928,80.1315971 30.4236986,83.8717388 C31.3432268,87.5085447 33.5692339,90.897036 37.012957,95.1955 C51.510435,113.303955 60.820831,136.932397 66.4836266,160.452876 C69.9481535,174.961542 72.0992669,189.852704 73.4986695,204.975215 C74.6317834,217.364724 75.2669929,230.013344 75.7912488,242.745249 C77.2821881,278.497919 77.910463,316.136855 66.4711443,349.779623 C64.0149084,357.019304 60.9636838,364.481079 61.6779477,372.03231 C62.2618412,378.422168 65.7554934,383.558116 68.9925654,388.225196 C73.6026885,394.872623 79.667691,401.850108 87.8435862,405.45144 C94.0736323,408.207578 101.070645,407.317655 107.204994,408.045633 C119.905023,409.554029 133.365085,406.736198 143.263535,397.085861 C152.231361,388.342412 156.597387,374.736008 159.544592,361.601556 C165.610982,334.56303 167.45836,306.640751 171.749491,279.179628 C175.775721,253.410437 181.880944,228.127078 186.213683,202.464308 C190.3897,177.717679 192.881996,152.173668 189.231621,127.285145 C185.578473,102.362691 175.001819,78.3610063 157.773495,62.3007605 C141.120743,46.7787866 119.382154,38.8142126 97.4937777,36.8477463 C93.0986273,36.4529107 88.6507739,36.2863394 84.2056943,36.4451991 C71.7358938,36.8863045 59.4519406,40.3858433 49.6963432,47.6301508 Z" id="Stroke-5"></path>
                        <path d="M60.556156,66.7817316 C54.8448511,72.0526175 49.7601438,79.1741015 47.3395133,87.1846134 C45.8733028,92.0418544 45.5786774,95.6010529 46.6147073,98.7975404 C47.6133903,101.878269 49.5775591,104.790762 52.4546514,108.399351 C64.8109329,123.92184 73.1600334,143.938859 78.3913618,164.227525 C81.5437143,176.60446 83.5894929,189.38115 84.9035495,202.441834 C85.943729,212.99441 86.5205307,223.894263 86.9258134,234.94383 C88.0821832,265.530403 88.0738839,298.084876 78.7316333,327.165041 C76.7204351,333.453061 74.2624577,339.883079 74.5778313,346.348596 C74.8461754,351.857174 77.4659893,356.316204 79.4758043,360.546804 C82.7360478,367.407445 87.5192137,375.359306 95.2486328,379.116066 C101.16742,382.00695 107.977,381.229051 113.750549,380.25822 C124.267152,378.486338 134.99262,376.624936 142.904624,367.848872 C150.120869,359.846077 153.838958,348.152891 156.47122,336.813155 C161.886517,313.468455 163.984858,289.399876 167.718161,265.644618 C171.220468,243.349465 176.068645,221.383068 179.460294,199.123414 C182.640311,178.249779 184.495206,156.7387 181.447978,135.784806 C178.3966,114.784608 169.743192,94.7058512 155.981561,80.4706005 C141.662494,65.6565556 122.485568,56.8480795 102.769186,54.9604386 C98.799352,54.5807496 94.7797221,54.4649908 90.7614754,54.6995953 C79.5200672,55.3493883 68.5400871,59.4132954 60.556156,66.7817316 Z" id="Stroke-7"></path>
                        <path d="M69.544792,85.9206811 C65.4806908,90.8954725 61.8762611,97.285028 60.5275245,104.055244 C59.7444315,107.991309 59.7981057,110.996527 60.9252642,113.641119 C62.0001246,116.160878 63.7039368,118.592793 66.0077991,121.50246 C76.2141567,134.406403 83.6198216,150.759412 88.3775587,167.782815 C91.2319257,177.995932 93.1504347,188.635945 94.3739315,199.610384 C95.3221759,208.30394 95.8368978,217.430555 96.127289,226.774471 C96.9475411,252.132345 96.3048268,279.533767 89.0684421,303.988535 C87.5008799,309.313164 85.6264113,314.70098 85.5589745,320.064138 C85.5011715,324.678304 87.1416756,328.582005 88.0458796,332.237582 C89.8391488,339.48401 93.4600936,348.203765 100.728132,352.107466 C106.325389,355.126554 112.946585,353.688673 118.33465,351.794616 C126.574329,348.897277 134.641976,345.841202 140.566783,337.96599 C146.025038,330.711856 149.095478,320.965704 151.404845,311.444557 C156.162582,291.84129 158.509109,271.680131 161.675887,251.676168 C164.651365,232.905115 168.253042,214.302046 170.689026,195.492465 C172.886916,178.536872 174.089769,161.100444 171.652409,144.126357 C169.206792,127.089083 162.538803,110.879401 152.192067,98.5949948 C140.265382,84.438107 123.633258,74.8907611 106.116197,73.0876304 C102.579204,72.723922 98.9940424,72.6591942 95.4088803,72.9689628 C85.4117145,73.8258352 75.7269601,78.3536967 69.544792,85.9206811 Z" id="Stroke-9"></path>
                        <path d="M79.9616429,105.105257 C77.4146454,109.71961 75.2724412,115.452453 75.0234447,121.017137 C74.8899047,124.036291 75.3169545,126.504684 76.5591548,128.602818 C77.7220657,130.569819 79.1923968,132.524478 80.9590198,134.744489 C89.1619929,145.065459 95.6734593,157.817795 100.09419,171.600686 C102.655098,179.689303 104.51353,188.208345 105.668094,197.123873 C106.538886,203.981378 106.99793,211.361874 107.177374,219.021607 C107.675367,239.217692 106.38309,261.538139 101.147209,281.433388 C100.003772,285.807073 98.6781095,290.168415 98.2315851,294.441821 C97.8420934,298.176809 98.3484326,301.575478 98.3345221,304.620858 C98.2983551,312.3531 101.18894,321.783905 108.10659,325.844412 C113.469056,328.997784 120.080678,327.10175 125.092601,324.076425 C131.277173,320.34298 136.684152,315.779538 140.716782,308.792443 C144.485114,302.262 146.958386,294.444907 148.983743,286.71575 C153.152695,270.802327 155.783155,254.495504 158.43448,238.193309 C160.924445,222.893899 163.354595,207.611459 164.845792,192.197886 C166.11164,179.12003 166.656928,165.705855 164.791541,152.66811 C162.917808,139.5486 158.249472,127.044645 151.06335,116.800813 C141.473509,103.130542 127.019194,92.9530482 111.438135,91.2282583 C108.27908,90.878055 105.07551,90.8657131 101.867768,91.2513995 C92.965101,92.3174369 84.3197766,97.2079411 79.9616429,105.105257 Z" id="Stroke-11"></path>
                        <path d="M108.304612,276.90642 C105.848886,284.799055 108.542667,295.265946 115.03976,299.481734 C120.109914,302.77252 126.910492,300.675435 131.227502,296.255807 C135.54312,291.836178 137.913925,285.603606 140.009088,279.516193 C149.999047,250.496746 156.643706,219.895991 157.838157,188.85976 C158.549538,170.38596 157.146266,151.118417 148.961906,135.011944 C140.776154,118.903927 124.417179,106.812491 107.93152,109.542715 C100.22327,110.818262 92.4398447,116.003836 90.2444482,124.299518 C88.5794551,130.595404 88.0379147,138.849393 92.1516728,143.563972 C103.18434,156.206704 113.239729,173.210383 116.583637,194.596629 C120.175345,217.565726 115.655083,253.27793 108.304612,276.90642 Z" id="Stroke-13"></path>
                    </g>
                    <g id="Topo-graphics" transform="translate(471.045379, 719.305406) scale(1, -1) rotate(-48.000000) translate(-471.045379, -719.305406) translate(335.045379, 457.305406)" stroke="#808184">
                        <path d="M58.2046698,172.16556 C67.9356831,210.928898 70.1298603,251.017064 72.2824674,290.836448 C75.0893514,342.695462 77.5745192,396.500099 57.2630172,444.634336 C52.9198476,454.926025 47.4524786,465.639092 49.3791614,476.586258 C50.9949723,485.762941 57.651607,493.432721 65.1775987,499.302538 C81.9954067,512.419022 103.599196,518.524673 124.99152,521.864486 C147.13572,525.322216 171.752436,525.594465 189.777584,512.777974 C205.975456,501.262034 213.331552,481.651468 217.978364,462.829903 C227.543097,424.087374 229.276389,383.981868 236.298117,344.743395 C242.889686,307.918744 254.109992,272.011415 262.160128,235.455545 C270.212072,198.899674 275.077578,161.069264 268.764349,124.199528 C262.451119,87.3315252 243.849412,51.2490551 212.328448,29.3061689 C184.698805,10.0718956 149.772709,3.16510602 115.726815,0.772093293 C89.7491301,-1.05387946 62.6183278,-0.323837172 39.1818403,10.5782433 C25.2215234,17.0723249 12.8914765,27.8183393 5.63297929,41.0579423 C-3.57931165,57.8627874 -1.2315059,64.6031066 10.7695951,77.4993643 C35.1495426,103.697651 49.7334107,138.418879 58.2046698,172.16556 Z" id="Stroke-1"></path>
                        <path d="M51.9383805,32.0046798 C40.1668765,38.3439675 29.752235,48.1256216 23.8628744,59.924558 C20.1387198,67.3893679 18.8648569,72.6533489 19.979938,77.4653894 C21.0571281,82.1769987 24.2977199,86.5128568 29.5050407,92.1179576 C51.1047761,115.36259 64.4424459,145.962942 72.3526656,176.014386 C77.2532488,194.706714 80.1834944,213.811155 82.1123322,233.112996 C83.6983457,249.093681 84.6041236,265.26657 85.4341193,281.460237 C87.80502,327.421372 89.4541853,375.41364 71.8763202,418.332401 C68.1106659,427.533979 63.3959296,437.071481 64.8231613,446.776946 C66.0086116,454.944775 71.6056695,461.611329 77.4661607,467.207772 C85.2175987,474.611977 94.7499186,481.181564 105.940426,485.053361 C114.428034,487.998766 123.604899,488.959789 132.179115,489.598739 C151.591993,491.044602 172.524123,490.71214 187.972868,478.909741 C201.880709,468.241521 208.403393,450.823632 212.638175,434.05335 C221.358543,399.532717 223.426314,363.832882 229.723456,328.827409 C235.632664,295.976011 245.242571,263.862264 252.039513,231.197877 C258.814804,199.061619 262.825849,165.827544 257.300964,133.447135 C251.772471,101.051141 235.592969,69.5936599 208.666826,49.5905321 C184.041215,31.294735 152.468901,23.3537426 121.235803,21.0559456 C114.980161,20.5953473 108.650542,20.3511955 102.324531,20.4447005 C84.5445804,20.7061679 66.9107809,23.9407457 51.9383805,32.0046798 Z" id="Stroke-3"></path>
                        <path d="M64.9045897,53.4741654 C55.2609599,59.629873 46.7041404,68.4920141 42.1594621,78.8796625 C39.3337554,85.3383937 38.5023456,89.9633993 39.7340639,94.1624404 C40.9349892,98.2454667 43.8422067,102.049711 48.3397899,106.875578 C67.2738361,127.205863 79.4334316,153.733413 86.8291755,180.139754 C91.3539289,196.42857 94.1633335,213.146814 95.9909861,230.124792 C97.4708594,244.034441 98.3004579,258.234991 98.9851484,272.529047 C100.93235,312.668416 101.752892,354.925487 86.8128734,392.696078 C83.6049717,400.824036 79.6200007,409.20134 80.5528462,417.679074 C81.3154248,424.852941 85.8782165,430.619046 90.1059085,435.858757 C96.1268374,443.321795 104.047873,451.155387 114.725784,455.198588 C122.86237,458.292891 132.000633,457.293779 140.012236,458.111077 C156.598772,459.804546 174.177928,456.64098 187.105536,445.806588 C198.817728,435.990356 204.519859,420.714504 208.368979,405.968511 C216.291826,375.612474 218.704545,344.264252 224.308863,313.433767 C229.567213,284.502807 237.540778,256.117289 243.199437,227.305807 C248.653413,199.522874 251.90841,170.844722 247.140936,142.902485 C242.369838,114.922153 228.55648,87.9755646 206.055885,69.9447957 C184.307,52.5183425 155.915893,43.5765495 127.32916,41.3688062 C121.588991,40.925526 115.77999,40.7385172 109.974612,40.9168682 C93.6887597,41.4120953 77.6456287,45.3410125 64.9045897,53.4741654 Z" id="Stroke-5"></path>
                        <path d="M79.0877599,74.9755627 C71.6286618,80.8931637 64.9879148,88.8884231 61.8265145,97.8817904 C59.9116092,103.334994 59.5268217,107.330891 60.879901,110.919574 C62.1842044,114.378294 64.7494549,117.648137 68.5070049,121.699485 C84.6445983,139.126516 95.5487194,161.599537 102.380957,184.377536 C106.498003,198.273068 109.169838,212.617402 110.886027,227.280576 C112.244526,239.127908 112.997842,251.365125 113.527151,263.770427 C115.037397,298.109841 115.026558,334.658608 102.825359,367.306784 C100.198687,374.366317 96.9885114,381.585271 97.4003967,388.844079 C97.7508604,395.028535 101.172399,400.03467 103.797264,404.784346 C108.055219,412.486758 114.302146,421.414278 124.396948,425.631976 C132.127023,428.87756 141.020494,428.004215 148.560885,426.914268 C162.295814,424.924983 176.303527,422.835195 186.63679,412.982346 C196.061376,403.997643 200.917286,390.869753 204.355083,378.13868 C211.427587,351.929686 214.16807,324.907996 219.043852,298.23807 C223.617947,273.207398 229.94978,248.545817 234.379353,223.555 C238.53253,200.120261 240.955066,175.969864 236.975314,152.445017 C232.990144,128.868186 221.688589,106.325852 203.715577,90.343997 C185.01454,73.7123325 159.969024,63.8230942 134.218967,61.703848 C129.034271,61.2775728 123.78454,61.1476108 118.536615,61.4110004 C103.855073,62.1405201 89.5149612,66.7030511 79.0877599,74.9755627 Z" id="Stroke-7"></path>
                        <path d="M90.8271293,96.4627791 C85.5193178,102.047956 80.8118481,109.221482 79.0503665,116.822375 C78.0276287,121.241378 78.0977285,124.615323 79.5698238,127.584395 C80.9736168,130.413318 83.1988354,133.143619 86.2077336,136.41029 C99.5374761,150.897491 109.209448,169.256943 115.423164,188.369045 C119.151035,199.835268 121.656652,211.780764 123.254568,224.101719 C124.492997,233.861937 125.165236,244.108349 125.544494,254.598723 C126.615762,283.067899 125.776362,313.831358 116.325474,341.28662 C114.278201,347.264559 111.830101,353.313437 111.742027,359.334631 C111.666535,364.514935 113.809072,368.897603 114.989984,373.001705 C117.332035,381.137238 122.061074,390.92687 131.553303,395.309538 C138.863452,398.699055 147.510889,397.084752 154.547828,394.958301 C165.309042,391.705472 175.845578,388.27443 183.583515,379.432963 C190.712124,371.288779 194.722191,360.346815 197.738278,349.657465 C203.951995,327.648961 207.016613,305.014115 211.1525,282.555751 C215.038544,261.481571 219.742419,240.595985 222.923871,219.478549 C225.794367,200.442578 227.365321,180.866775 224.182072,161.810041 C220.988038,142.682367 212.279489,124.483826 198.766409,110.692176 C183.189878,94.7982995 161.467934,84.0795353 138.590242,82.0551682 C133.970847,81.6468343 129.288541,81.5741647 124.606235,81.9219406 C111.549702,82.8839476 98.9011858,87.9673582 90.8271293,96.4627791 Z" id="Stroke-9"></path>
                        <path d="M104.431781,118.00122 C101.105342,123.181734 98.3075735,129.617972 97.9823782,135.865419 C97.8079719,139.25501 98.3657089,142.026264 99.9880516,144.381831 C101.506841,146.590174 103.427127,148.784661 105.734379,151.277058 C116.447654,162.864366 124.951782,177.18136 130.725359,192.655352 C134.069965,201.736407 136.497121,211.300699 138.005009,221.310124 C139.142284,229.009016 139.741806,237.295067 139.976165,245.894616 C140.626555,268.568674 138.93881,293.627743 132.100626,315.964054 C130.607272,320.874371 128.875925,325.770831 128.292754,330.568566 C127.784069,334.76182 128.445359,338.577491 128.427192,341.996527 C128.379957,350.677481 132.155128,361.265406 141.189742,365.824119 C148.193249,369.364397 156.828181,367.235727 163.373871,363.839208 C171.451066,359.647686 178.512708,354.524329 183.779417,346.679947 C188.700947,339.348247 191.931099,330.57203 194.576262,321.894539 C200.021011,304.028608 203.456454,285.721007 206.919147,267.418603 C210.171099,250.242021 213.344932,233.084492 215.29247,215.779739 C216.945697,201.097287 217.657857,186.03725 215.221618,171.39983 C212.774478,156.670612 206.677522,142.632476 197.292278,131.13177 C184.76772,115.784216 165.890046,104.357987 145.540818,102.421573 C141.415017,102.028401 137.231081,102.014545 133.041694,102.447554 C121.414602,103.644389 110.123606,109.134937 104.431781,118.00122 Z" id="Stroke-11"></path>
                        <path d="M141.448363,310.881646 C138.241128,319.742674 141.759269,331.493807 150.244624,336.226855 C156.866365,339.921405 165.748079,337.567018 171.386195,332.60512 C177.022493,327.643222 180.118821,320.64594 182.855152,313.811628 C195.902273,281.231619 204.580353,246.876283 206.140335,212.03204 C207.069415,191.291584 205.236709,169.659997 194.547743,151.577329 C183.856959,133.492928 162.491754,119.917924 140.961096,122.983135 C130.893941,124.415186 120.728605,130.237007 117.861366,139.550535 C115.686846,146.618899 114.979581,155.885616 120.352246,161.178654 C134.761168,175.372595 147.893742,194.462552 152.260964,218.472798 C156.951818,244.260104 151.048251,284.354043 141.448363,310.881646 Z" id="Stroke-13"></path>
                    </g>
                    <g id="Topo-graphics" transform="translate(134.585712, 888.102328) rotate(-17.000000) translate(-134.585712, -888.102328) translate(40.085712, 738.102328)">
                        <g id="Group-3">
                            <mask id="mask-2" fill="white">
                                <use xlink:href="#path-1"></use>
                            </mask>
                            <g id="Clip-2"></g>
                            <path d="M108.211068,2.15813534 C81.9834819,2.15813534 54.7067924,16.0583493 36.6277221,38.7510442 C21.9726093,57.1470423 12.5181035,80.6687239 6.87737606,112.772376 C0.277365705,150.315029 0.106706754,188.405989 6.36899203,225.986175 C9.19833778,242.975507 13.9246925,262.21681 27.5253126,276.117024 C39.1804207,288.029628 57.0654787,295.55252 77.8858707,297.298614 C96.5864988,298.870098 116.45659,295.221251 133.831467,287.029296 C151.628501,278.636622 165.766248,266.258937 174.719556,251.232737 C187.238737,230.222493 189.701615,203.738979 181.306991,180.395171 C177.981836,171.144136 173.018355,162.276589 168.218348,153.701146 C163.786604,145.781712 159.20037,137.589757 155.877011,129.064902 C147.760831,108.226004 147.229093,85.0290633 154.380601,63.7446667 C160.139892,46.6052036 165.114151,31.8042009 149.169216,16.7176222 C139.80992,7.85986668 125.539239,2.56283751 110.018256,2.18098143 C109.416459,2.16629466 108.814662,2.15813534 108.211068,2.15813534 M86.4780997,299.287855 C83.539173,299.287855 80.6182103,299.168729 77.720601,298.92395 C56.4475137,297.140323 38.1420958,289.424872 26.181598,277.200582 C12.2701989,262.982154 7.46120931,243.455275 4.59234253,226.232587 C-1.69688889,188.482687 -1.52622994,150.222013 5.10252297,112.514542 C10.7917535,80.1497912 20.3468583,56.4061762 35.17263,37.7947721 C54.0097853,14.1507008 82.7056387,-0.0758858949 110.066759,0.549117855 C126.058401,0.942396977 140.781778,6.42382673 150.464428,15.5867407 C167.138705,31.3652296 161.776421,47.3248554 156.099766,64.219539 C149.056042,85.1742992 149.578798,108.008966 157.572822,128.519859 C160.854863,136.945171 165.412355,145.08817 169.820745,152.961912 C174.651292,161.591207 179.647108,170.515869 183.017173,179.887661 C191.559103,203.650859 189.049518,230.612509 176.2986,252.009504 C167.174634,267.322912 152.776407,279.933953 134.659612,288.476759 C119.670367,295.54436 102.852377,299.287855 86.4780997,299.287855" id="Fill-1" fill="#626366" mask="url(#mask-2)"></path>
                        </g>
                        <path d="M107.011952,17.2312264 C83.2877066,17.2312264 58.5726285,29.9698256 42.4207927,50.5475628 L42.4207927,50.549196 C29.4356662,67.0603803 21.0396606,88.1035664 16.0027766,116.771947 C11.8847958,140.199538 10.5469016,163.999487 12.0268571,187.513635 C12.6688306,197.732278 13.8574705,207.983584 15.5604084,217.976852 C18.1390916,233.112921 22.4368969,250.24797 34.7476816,262.576647 C45.2853968,273.102323 61.3023643,279.599009 79.8494623,280.869603 C96.4616489,282.014443 114.120414,278.498263 129.543961,270.967791 C145.255226,263.373626 157.780002,252.186523 165.769604,238.619915 C176.889951,219.78312 179.197099,196.05013 171.935786,175.13433 C169.028024,166.829743 164.660087,158.863219 160.432413,151.157999 C156.582371,144.137071 152.602855,136.877703 149.700488,129.334166 C142.565052,110.739077 141.978824,90.0731498 148.049699,71.1432647 C152.937329,55.9467691 157.157809,42.8243787 142.840183,29.6203307 C134.397424,21.8318205 121.484227,17.3177835 107.414759,17.2328595 C107.27989,17.2312264 107.143224,17.2312264 107.011952,17.2312264 M86.058802,282.715066 C83.92968,282.715066 81.8131458,282.643208 79.7109975,282.49949 C60.705347,281.196233 44.2639937,274.510102 33.4169804,263.672494 C20.7861081,251.023718 16.401987,233.601234 13.7819442,218.225091 C12.0718133,208.181196 10.8777786,197.879262 10.2322087,187.605092 C8.74506017,163.976623 10.0883491,140.057453 14.2243124,116.513909 C19.309749,87.5858566 27.804658,66.323828 40.9570213,49.5987005 C57.4397342,28.5996096 82.7158647,15.5980726 107.011952,15.5980726 C107.150417,15.5980726 107.285285,15.5980726 107.42375,15.5997058 C121.969753,15.6878961 135.345099,20.3815799 144.122332,28.4754899 C159.180835,42.3621962 154.613293,56.5641012 149.776014,71.6005478 C143.809437,90.2070684 144.384876,110.518602 151.398031,128.796858 C154.260837,136.240773 158.218774,143.454413 162.043641,150.429613 C166.300087,158.190359 170.698594,166.215677 173.651312,174.641117 C181.052888,195.970105 178.698985,220.17671 167.355656,239.389131 C159.198817,253.244807 146.415094,264.662185 130.392732,272.408233 C116.623571,279.130294 101.099322,282.715066 86.058802,282.715066" id="Fill-4" fill="#626366"></path>
                        <path d="M105.546875,32.8259238 C105.182982,32.8259238 104.817295,32.8291852 104.451609,32.8357081 C83.6343848,33.1977294 62.0427661,44.6861974 48.1054614,62.8215065 L48.1036688,62.8231373 C36.8391,77.413247 29.5361316,95.9317769 25.1210086,121.105301 C21.483865,141.830204 20.2953849,162.757317 21.5896272,183.30284 C22.1578748,192.32728 23.2190818,201.333783 24.748152,210.076107 C27.0659572,223.32576 30.9146251,238.318659 41.8887961,249.047209 C51.2639863,258.1646 65.3482825,263.621011 81.5460298,264.415175 C95.9225165,265.126172 111.272374,261.745676 124.804555,254.904778 C138.424574,248.021482 149.289397,238.05122 156.226679,226.071903 C165.94963,209.383048 168.088177,188.451043 161.9468,170.08091 C159.482004,162.705134 155.701454,155.627781 152.048177,148.781991 C148.805401,142.707535 145.449692,136.422715 142.993858,129.906332 C136.868615,113.600698 136.230456,95.5126802 141.195901,78.9787445 C145.023058,66.3128919 148.638691,54.3498825 136.013554,43.0522095 C128.624542,36.4396136 117.836799,32.8259238 105.546875,32.8259238 M85.4968748,266.142114 C84.1470625,266.142114 82.7972502,266.1095 81.4510231,266.04264 C64.7889977,265.228907 50.2726899,259.588224 40.5784206,250.159364 C29.274415,239.107931 25.3379107,223.824762 22.975291,210.332131 C21.4408431,201.535993 20.3706732,192.472415 19.800633,183.395791 C18.4992203,162.732856 19.6930782,141.688331 23.3499401,120.847647 C27.8116702,95.4213595 35.2114379,76.685943 46.6373389,61.8854695 C60.8973079,43.3326944 83.0374558,31.5767873 104.415758,31.2049816 C117.68443,30.988095 129.314685,34.7697497 137.270153,41.8895015 C150.64638,53.8590338 146.894511,66.270493 142.92574,79.4092562 C138.05351,95.6333539 138.67912,113.377289 144.689639,129.377977 C147.111413,135.799778 150.440233,142.038937 153.661498,148.070994 C157.345249,154.970598 161.15448,162.106657 163.662299,169.606368 C169.936327,188.380922 167.74938,209.774423 157.81132,226.835083 C150.712705,239.091623 139.600506,249.291817 125.675749,256.331664 C112.916169,262.781187 99.1097226,266.142114 85.4968748,266.142114" id="Fill-6" fill="#626366"></path>
                        <path d="M105.834685,47.4554013 C104.949383,47.4554013 104.055084,47.4782865 103.149988,47.5207876 C84.9617073,48.3953285 66.982156,58.402692 55.0557683,74.2899127 L55.0539689,74.2931821 C45.4344051,87.0173437 39.1725117,103.082742 35.3487981,124.853089 C32.1710671,142.961808 31.12202,161.093411 32.2394441,178.742791 C32.7378764,186.608755 33.6807592,194.407698 35.0393022,201.927115 C37.1194024,213.369707 40.550848,226.2982 50.2513845,235.413042 C58.4890132,243.154772 70.7374926,247.594498 84.7385824,247.91489 C97.1562048,248.212398 110.01288,245.044434 121.856495,238.762452 C133.448196,232.61778 142.729473,223.826601 148.694466,213.338648 C157.06705,198.764056 159.049983,180.555624 154.006279,164.622633 C151.962167,158.159204 148.757445,151.95405 145.660687,145.953228 C142.995784,140.78935 140.239111,135.448929 138.203996,129.928696 C133.050529,115.852674 132.355963,100.277672 136.246254,86.0741472 C139.245845,75.2658023 142.078092,65.0573762 131.062198,55.604161 C124.890275,50.3095106 116.006663,47.4554013 105.834685,47.4554013 M86.3310466,249.569162 C85.7840307,249.569162 85.2406135,249.562623 84.6935975,249.549546 C70.2174676,249.217711 57.5263371,244.601443 48.9594192,236.550762 C38.8522194,227.055046 35.2624271,213.202972 33.2650991,202.19193 C31.8939603,194.616934 30.9456794,186.760778 30.4436482,178.835966 C29.320826,161.070526 30.3716725,142.819592 33.5709961,124.593179 C37.4378952,102.577633 43.7933571,86.3013644 53.5712677,73.3679668 C65.8125495,57.0622741 84.3103265,46.7900964 103.054621,45.889401 C114.833458,45.3090981 125.226761,48.3495581 132.298382,54.4174009 C144.080818,64.526113 141.122614,75.1857042 137.991667,86.4713686 C134.184148,100.375752 134.864319,115.625457 139.909822,129.41051 C141.914347,134.840837 144.645828,140.137122 147.289139,145.258499 C150.416487,151.316534 153.649999,157.58217 155.735498,164.168199 C160.980733,180.74034 158.9978,198.935695 150.292329,214.09059 C144.170788,224.85153 134.651991,233.873196 122.76339,240.174794 C111.148298,246.334178 98.5867236,249.569162 86.3310466,249.569162" id="Fill-8" fill="#626366"></path>
                        <path d="M104.602711,63.0467819 C103.059531,63.0467819 101.588044,63.1249937 100.229472,63.2471997 C85.1955666,64.6061303 70.4376772,73.3560793 60.7484436,86.65535 C52.8264287,97.5284244 47.6538189,111.054183 44.4670898,129.220511 C41.7678694,144.621725 40.8699215,159.858368 41.8019233,174.505164 C42.2284933,181.169464 43.0439949,187.719705 44.2269202,193.971763 C45.9367849,202.967754 48.9783368,214.262846 57.386068,221.792365 C64.449566,228.116117 74.8431779,231.510185 86.4286766,231.361908 C96.6412651,231.241332 107.255331,228.21877 117.125588,222.623365 C126.54956,217.27889 134.175844,209.713524 139.179976,200.740346 C146.220174,188.117282 147.99277,173.108756 144.042516,159.561815 C142.433021,154.047881 139.83417,148.74577 137.319557,143.616377 C135.25123,139.396197 133.111211,135.034258 131.512469,130.540336 C127.354308,118.730349 126.608706,105.758591 129.411881,94.0121507 C131.535769,85.1122957 133.543158,76.7061529 124.267948,69.1635991 C118.331814,64.3372772 110.874007,63.0467819 104.602711,63.0467819 M85.6812829,232.99621 C73.8484452,232.99621 63.3777639,229.444089 56.129658,222.954136 C47.3562953,215.097106 44.2161663,203.485907 42.4597014,194.248764 C41.2660223,187.934787 40.4433515,181.325887 40.0131968,174.601299 C39.0740258,159.835556 39.9773506,144.481596 42.6962865,128.963064 C45.9260311,110.558842 51.186464,96.8294061 59.2536562,85.7559139 L60.0010499,86.2056319 L59.2536562,85.7559139 C69.2368288,72.0525487 84.4876037,63.0321172 100.050241,61.627563 C107.300139,60.9709095 117.579043,61.5395747 125.461627,67.9480568 C135.516492,76.122823 133.302988,85.3941842 131.161176,94.3592157 C128.42611,105.830285 129.15558,118.500602 133.218749,130.040106 C134.788814,134.449298 136.907326,138.773761 138.957729,142.953206 C141.501019,148.141258 144.130339,153.505286 145.775681,159.146315 C149.835265,173.07128 148.01607,188.501823 140.78051,201.47847 C135.627615,210.715613 127.777293,218.504209 118.075513,224.003478 C107.925656,229.758566 96.9907658,232.867486 86.453769,232.991322 C86.1956762,232.99458 85.9375834,232.99621 85.6812829,232.99621" id="Fill-10" fill="#626366"></path>
                        <path d="M66.6398368,98.2862351 C60.4377535,107.170679 56.1779917,118.539507 53.6242988,133.041528 C51.4114589,145.608533 50.6323662,158.361378 51.3753898,169.912786 C51.7306706,175.377126 52.4268044,180.702902 53.4475602,185.738507 C54.9263936,192.996038 57.5377971,202.085884 64.6758738,208.006673 C70.6290802,212.942838 79.1089278,215.322891 88.5500171,214.693644 C96.651139,214.178509 105.149021,211.288212 113.129311,206.340636 C120.417075,201.821796 126.631782,195.275021 130.622829,187.909898 C136.294697,177.442556 137.91961,165.113556 135.082775,154.085434 C133.906922,149.511168 131.896069,145.10318 129.95014,140.840277 C128.444255,137.534285 126.884266,134.115812 125.704806,130.61257 C122.510887,121.131483 121.706546,110.713046 123.439666,101.277603 C124.950962,93.0501188 125.40904,87.2581134 118.294408,81.9323375 C113.235715,78.1470753 106.375371,76.8706497 97.8991301,78.1503356 C85.8628684,79.9663486 74.1782806,87.4928583 66.6398368,98.2862351 M85.619402,216.423258 C76.9069087,216.423258 69.1231949,213.90627 63.4567379,209.206481 C55.9255079,202.961287 53.2022902,193.542146 51.6711565,186.033569 C50.63958,180.929496 49.9344289,175.538513 49.5755413,170.008966 C48.8253038,158.340186 49.6098069,145.466708 51.8424848,132.785591 C54.4358537,118.060236 58.7785745,106.490897 65.1141135,97.4173528 C72.9212721,86.2343646 85.0675446,78.4323556 97.6033634,76.5429848 C106.61523,75.1883109 113.964311,76.5755883 119.445012,80.6771041 C127.890594,87.000546 126.532592,94.3933815 125.217873,101.544951 C123.531642,110.737498 124.316146,120.891847 127.430713,130.13819 C128.586728,133.568074 130.126879,136.949053 131.618337,140.219181 C133.591317,144.5424 135.629222,149.012335 136.841144,153.715385 C139.769955,165.103775 138.092742,177.828907 132.242332,188.625544 C128.116026,196.240083 121.690314,203.008562 114.151871,207.683899 C105.902865,212.797752 97.0965925,215.78423 88.6798659,216.320557 C87.6482893,216.387394 86.6275336,216.423258 85.619402,216.423258" id="Fill-12" fill="#626366"></path>
                        <path d="M102.1695,92.3085835 C99.9781892,92.3085835 97.5951608,92.6332675 95.0024977,93.2859151 C86.0294104,95.5373853 77.7658564,101.71786 72.329685,110.243274 C67.8108898,117.327288 64.6735344,126.188865 62.736652,137.333068 C60.9968621,147.335958 60.3769164,157.227341 60.9359426,165.938054 C61.2154557,170.224539 61.7834407,174.343762 62.6255635,178.182576 C63.7561581,183.297168 65.9331352,190.604198 71.768867,194.975953 C76.5295485,198.540917 83.0551043,199.908525 90.1593957,198.821326 C96.0793398,197.930905 102.357634,195.162892 108.324164,190.815734 C113.523824,187.027755 118.040827,181.675388 121.049177,175.745806 C125.290251,167.379455 126.750527,157.675011 125.051948,149.12008 C124.319122,145.42393 122.919764,141.844208 121.566993,138.384191 C120.646033,136.026133 119.69103,133.589363 118.94387,131.114878 C116.779435,123.934115 115.928353,116.04331 116.542924,108.893703 C117.044614,103.070709 116.974736,98.6628785 111.477645,94.9601693 C108.849147,93.1908057 105.769127,92.3085835 102.1695,92.3085835 M85.4811347,200.825184 C79.8066604,200.826824 74.6553773,199.255878 70.6346888,196.245172 C64.3563946,191.542174 62.0522032,183.869465 60.8678561,178.50726 C60.0113993,174.593014 59.4308721,170.39672 59.1477754,166.034804 C58.5797905,157.207663 59.208695,147.194934 60.9664024,137.077257 C62.9391198,125.728076 66.1481452,116.67956 70.7816124,109.416805 C76.4507115,100.524072 85.1084506,94.0681083 94.5294755,91.7034907 C101.94374,89.8422972 107.838599,90.4752669 112.540153,93.6401158 C118.768278,97.8364102 118.857866,102.872292 118.329299,109.021609 C117.730855,115.985917 118.560435,123.678303 120.672909,130.678686 C121.40036,133.094138 122.342821,135.503031 123.254822,137.831573 C124.630886,141.353902 126.05712,144.997578 126.816822,148.828193 C128.576321,157.707808 127.067667,167.771371 122.672503,176.43617 C119.553065,182.592047 114.851511,188.15431 109.440424,192.098072 C103.237384,196.61905 96.6706175,199.50349 90.451451,200.438187 C88.7636219,200.698918 87.0990855,200.825184 85.4811347,200.825184" id="Fill-14" fill="#626366"></path>
                        <path d="M78.213138,122.410535 C75.3114324,127.665929 73.2457503,133.974702 71.9005289,141.695101 C70.6311456,148.98166 70.1400044,156.141682 70.521,161.858853 C70.7268459,164.910531 71.1728455,167.796231 71.8499703,170.437075 C73.2710296,175.932395 75.6129786,179.598681 79.0022141,181.639707 C83.6463876,184.431737 88.70767,183.730032 92.1366301,182.647072 C96.1145127,181.404709 100.161011,178.846033 104.164173,175.03842 C107.363813,171.998245 110.263713,167.858678 112.333007,163.387157 C115.258186,157.060307 116.540209,150.199373 115.940728,144.069724 C115.653627,141.144583 114.844688,138.290106 114.062835,135.530942 C113.696285,134.242566 113.333346,132.955832 113.015548,131.659239 C111.942983,127.256738 111.08168,122.256062 110.458725,116.795251 C110.075924,113.434626 109.433107,110.476618 105.422722,108.307413 C101.838475,106.364988 97.784754,106.493168 92.6638846,108.710031 C86.9110321,111.204617 81.6457094,116.19872 78.213138,122.410535 M86.3494699,185.227112 C83.3051167,185.227112 80.4575811,184.482681 78.0090977,183.01025 C74.2135873,180.726011 71.624262,176.737631 70.0912514,170.810112 C69.3906529,168.080529 68.930208,165.102801 68.7189451,161.957453 C68.3307268,156.126891 68.8272851,148.83869 70.1165307,141.438741 C71.4924484,133.545791 73.6123005,127.080901 76.6006781,121.672677 C80.2083991,115.138767 85.780685,109.875157 91.8874482,107.22774 C95.4807239,105.668213 100.886889,103.941065 106.347223,106.895786 C111.067235,109.447889 111.854505,113.102672 112.255363,116.624344 C112.871095,122.024351 113.721564,126.96258 114.779684,131.302635 C115.092065,132.581151 115.451392,133.851451 115.81072,135.120108 C116.612435,137.945005 117.439431,140.863573 117.739171,143.92511 C118.362126,150.314407 117.034961,157.453065 113.996025,164.024772 C111.843671,168.67706 108.815569,172.992465 105.469669,176.175609 C101.264273,180.172206 96.9776212,182.873853 92.7252773,184.20167 C90.5530608,184.886942 88.4079294,185.227112 86.3494699,185.227112" id="Fill-16" fill="#626366"></path>
                        <path d="M96.2303061,120.557337 C94.0134953,120.557337 91.9775391,121.454768 90.059765,123.26421 C87.7229814,125.467292 85.6727001,128.938764 83.968012,133.579814 C80.8075346,142.178309 79.7761267,152.273604 80.0751634,156.388182 C80.3043651,159.57293 81.3769577,165.14057 85.9627836,166.671387 C88.4320744,167.489443 91.0052223,166.930573 93.6123923,165.001257 C95.809506,163.373245 97.906344,160.802444 99.3657145,157.948158 C101.811727,153.175896 105.040249,145.043935 106.093144,137.833704 C107.462983,128.439831 105.042039,122.763657 98.8965672,120.962315 C97.9797601,120.693409 97.0898127,120.557337 96.2303061,120.557337 M88.1795943,168.65416 C87.2233932,168.65416 86.2743547,168.501888 85.3432226,168.189245 C79.8083582,166.344165 78.5459579,160.071864 78.2863153,156.496717 C77.980116,152.250926 79.0330116,141.872146 82.2686958,133.067921 C84.0593346,128.198464 86.2457045,124.521263 88.7651332,122.143231 C91.9059135,119.178791 95.5015161,118.261921 99.4498746,119.421778 C106.435156,121.467727 109.346735,127.9085 107.869458,138.045913 C106.787912,145.437574 103.489556,153.754205 100.991615,158.628521 C99.4212243,161.696636 97.1453225,164.474786 94.7476572,166.25345 C92.5988907,167.845824 90.3695455,168.65416 88.1795943,168.65416" id="Fill-18" fill="#626366"></path>
                    </g>
                    <g id="Topo-graphics" transform="translate(766.000000, 0.000000)" stroke="#808184">
                        <path d="M70.1782,130.775551 C67.6352,136.408033 67.2032,143.530503 71.7442,148.005015 C75.0842,151.296087 80.2602,152.364003 85.1312,153.020762 C92.7492,154.046834 100.5732,154.467997 108.1152,153.04987 C115.6572,151.631744 122.9442,148.225148 127.6592,142.685449 C132.3752,137.14666 134.1402,129.331045 131.0962,122.896262 C119.4642,98.3014548 78.8782,111.510316 70.1782,130.775551 Z" id="Stroke-1"></path>
                        <path d="M63.4653,115.763422 C59.6093,121.470495 58.2793,128.631169 58.4463,135.17147 C58.5593,139.55138 59.0813,143.98223 61.7563,147.618964 C65.2943,152.429133 71.5843,154.719603 77.7473,156.257802 C79.4793,156.68897 81.2383,157.063742 83.0103,157.376657 C91.0913,158.801151 99.4243,158.793874 107.6033,158.17532 C111.6153,157.871501 115.7453,157.651368 119.4703,156.184121 C122.6073,154.948832 125.2863,152.962181 127.4313,150.719922 C129.5773,148.476754 131.2263,145.977067 132.6663,143.400061 C134.9723,139.276669 136.1863,134.758495 137.4993,130.350386 C139.8523,122.454723 140.7373,113.432928 135.9453,105.906579 C132.3053,100.187681 127.3493,96.2525849 121.5283,94.0285187 C116.1073,91.9572717 108.6513,90.9193741 102.5283,91.8845006 C99.7773,92.3183982 97.1303,93.1907416 94.5313,94.1931633 C87.2423,96.9857536 80.1713,101.42388 73.9763,105.580928 C69.5163,108.57273 66.2223,111.682784 63.4653,115.763422 Z" id="Stroke-3"></path>
                        <path d="M56.145,100.634951 C49.765,108.603384 48.06,119.098794 47.791,128.628167 C47.614,135.003824 47.715,141.579601 51.16,147.115661 C55.033,153.341228 62.302,156.957951 69.757,159.379408 C71.847,160.057089 73.987,160.641987 76.148,161.126824 C86.016,163.348161 96.347,163.474601 106.483,163.183517 C112.65,163.007047 119.042,162.962475 124.689,160.626523 C129.444,158.659884 133.32,155.279667 136.185,151.475559 C139.05,147.671451 140.979,143.44436 142.571,139.153595 C145.117,132.285824 146.052,125.056927 146.733,117.898981 C147.662,108.124005 146.82,97.3929988 140.187,88.7996434 C135.603,82.8597036 129.687,78.620788 122.883,76.2557277 C116.954,74.1935771 107.73,72.6571976 101.255,73.8679265 C98.136,74.4510048 95.239,75.6926614 92.399,77.0189145 C84.49,80.6874867 76.709,86.1962578 69.253,90.3069145 C63.828,93.297806 59.834,96.0267217 56.145,100.634951 Z" id="Stroke-5"></path>
                        <path d="M48.2529,85.3794024 C39.2549,95.5373361 37.2699,109.438433 36.5649,121.958698 C36.0959,130.329192 35.8279,139.027155 39.9919,146.486192 C44.2479,154.108053 52.4469,159.069222 61.1949,162.373939 C63.6439,163.297222 66.1649,164.092246 68.7139,164.750824 C80.3699,167.768095 92.7029,167.68168 104.7929,168.065547 C113.1079,168.329342 121.7679,168.146505 129.3359,164.941848 C135.7099,162.242951 140.7809,157.468258 144.3659,152.104119 C147.9519,146.739071 150.1609,140.784577 151.9029,134.779143 C154.6899,125.168812 155.6009,115.205541 155.3939,105.319589 C155.1489,93.6143602 152.3889,81.187788 143.8569,71.566541 C138.3709,65.3782699 131.4589,60.8509988 123.6669,58.3549506 C117.2319,56.2928 106.2399,54.2788602 99.4099,55.7242759 C95.9249,56.4619928 92.7759,58.0675048 89.6959,59.7175892 C81.1659,64.2621434 72.6709,70.8370108 63.9599,74.9058241 C57.5659,77.8921675 52.8329,80.2090169 48.2529,85.3794024 Z" id="Stroke-7"></path>
                        <path d="M40.0063,70.1109373 C28.3383,82.408341 26.1243,99.7660639 24.9843,115.275401 C24.2233,125.641642 23.6163,136.452696 28.4703,145.843805 C33.1303,154.858323 42.2383,161.168486 52.2773,165.355552 C55.0873,166.525347 57.9873,167.530498 60.9253,168.362817 C74.3693,172.175112 88.6833,172.689058 102.7473,172.93466 C113.2193,173.117498 124.1383,173.317618 133.6283,169.244257 C141.6203,165.81401 147.8883,159.645751 152.1943,152.719763 C156.4983,145.794684 158.9873,138.111877 160.8803,130.392684 C163.9093,118.037973 164.9303,105.299395 163.7003,92.7281904 C162.3603,79.0199373 157.6433,64.935094 147.1733,54.3205217 C140.8043,47.8639072 132.8783,43.060106 124.0943,40.4421663 C117.1583,38.3736482 104.3973,35.8957928 97.2103,37.5686181 C93.3603,38.464612 89.9583,40.4294313 86.6393,42.403347 C77.4873,47.8238831 68.2703,55.4457446 58.3113,59.4927265 C50.9423,62.4599675 45.4623,64.3602024 40.0063,70.1109373 Z" id="Stroke-9"></path>
                        <path d="M31.6631,54.7807988 C17.2921,69.1821964 14.8821,90.031112 13.3071,108.530431 C12.2541,120.892419 11.3271,133.812016 16.8511,145.138835 C21.9271,155.54601 31.9331,163.205166 43.2641,168.274582 C46.4321,169.691799 49.7131,170.906166 53.0401,171.912227 C68.2711,176.519546 84.5711,177.246347 100.6041,177.74119 C113.2261,178.131425 126.4131,178.427058 137.8251,173.484992 C147.4341,169.323395 154.8981,161.76066 159.9231,153.274642 C164.9491,144.787714 167.7181,135.377504 169.7611,125.943642 C173.0321,110.846371 174.2351,95.2970096 171.9111,80.0742084 C169.5041,64.3138108 162.8251,48.5888892 150.3911,37.0119193 C143.1521,30.2714976 134.2031,25.199353 124.4261,22.4667988 C116.9891,20.3873651 102.4601,17.4556 94.9141,19.3503771 C90.7001,20.4082867 87.0441,22.7296843 83.4841,25.0274313 C73.7131,31.3230398 63.7821,40.0109976 52.5661,44.0170458 C44.2291,46.9788289 37.9901,48.4397084 31.6631,54.7807988 Z" id="Stroke-11"></path>
                        <path d="M1.5942,101.778184 C0.2512,116.13501 -0.9848,131.160419 5.1982,144.426588 C12.2322,159.52204 28.1022,170.051106 45.1202,175.454359 C62.1382,180.857612 80.4212,181.800907 98.4272,182.540443 C113.1962,183.147172 128.6522,183.52922 141.9852,177.71754 C153.2132,172.824594 161.8732,163.868293 167.6182,153.820425 C173.3642,143.773467 176.4132,132.634943 178.6082,121.487323 C182.1182,103.646582 183.5462,85.2618771 180.0852,67.4129494 C176.6252,49.5649313 167.9892,32.210847 153.5752,19.6969494 C145.4702,12.6599855 135.4942,7.32586506 124.7232,4.48415422 C116.7852,2.38925663 100.4902,-0.988231325 92.5822,1.12485904 C88.0062,2.34741325 84.0952,5.0217506 80.2952,7.64423855 C69.9032,14.8158289 59.2602,24.5689735 46.7852,28.5331783 C37.4822,31.4904133 30.4822,32.5046602 23.2842,39.4424735 C6.1912,55.9223952 3.6052,80.2879735 1.5942,101.778184 Z" id="Stroke-13"></path>
                    </g>
                    <g id="Topo-graphics" transform="translate(656.765487, 300.323457) rotate(68.000000) translate(-656.765487, -300.323457) translate(545.765487, 188.823457)" stroke="#808184">
                        <path d="M85.0188973,158.971312 C81.9163775,165.812599 81.3893273,174.463644 86.9294541,179.898445 C91.0043326,183.895825 97.3191743,185.192929 103.261909,185.990637 C112.556048,187.236918 122.101512,187.748468 131.302929,186.025993 C140.504347,184.303518 149.394658,180.165821 155.147069,173.43723 C160.9007,166.709744 163.054041,157.216796 159.34029,149.401024 C145.148976,119.527848 95.6331018,135.571505 85.0188973,158.971312 Z" id="Stroke-1"></path>
                        <path d="M76.1166099,140.572172 C71.4204444,147.550829 69.800657,156.306964 70.0040439,164.3045 C70.1416649,169.660291 70.777401,175.078372 74.035244,179.525402 C78.344122,185.407318 86.0046203,188.208124 93.510447,190.089047 C95.6198243,190.616284 97.7620844,191.074557 99.9201771,191.457193 C109.761908,193.199076 119.910546,193.190178 129.871629,192.433804 C134.757785,192.062292 139.787651,191.793112 144.324273,189.998949 C148.144779,188.488427 151.407494,186.059134 154.019858,183.31728 C156.633439,180.574314 158.641732,177.517676 160.395487,174.366491 C163.20393,169.324372 164.682443,163.79951 166.281526,158.409237 C169.14721,148.754353 170.225039,137.722424 164.388933,128.51914 C159.95583,121.526023 153.919991,116.714153 146.830681,113.994546 C140.228525,111.461807 131.147973,110.192657 123.690861,111.372822 C120.340459,111.903396 117.116717,112.970105 113.951433,114.195875 C105.074267,117.610678 96.4626009,123.037657 88.9178018,128.120931 C83.4860336,131.779332 79.4743196,135.582333 76.1166099,140.572172 Z" id="Stroke-3"></path>
                        <path d="M67.5836784,122.022275 C59.7491287,131.773656 57.6554129,144.617427 57.3250847,156.27901 C57.1077312,164.081228 57.2317578,172.128343 61.462169,178.903104 C66.2181581,186.521649 75.1443872,190.947618 84.2990217,193.91088 C86.8655121,194.740193 89.4934018,195.455962 92.1470792,196.049283 C104.264844,198.767647 116.951165,198.922378 129.39803,198.566163 C136.971018,198.350208 144.820304,198.295662 151.75474,195.437038 C157.593813,193.030362 162.353486,188.893817 165.871665,184.238535 C169.389845,179.583252 171.758629,174.410345 173.713583,169.159516 C176.840035,160.755072 177.988202,151.908699 178.82446,143.149154 C179.965259,131.187015 178.931295,118.054932 170.786065,107.538802 C165.156977,100.269794 157.892213,95.082415 149.536998,92.1881695 C142.256269,89.6646101 130.929328,87.7844637 122.97812,89.2660947 C119.148032,89.9796376 115.590557,91.4991165 112.103077,93.1221203 C102.390937,97.6115403 92.8359793,104.352906 83.6801168,109.383327 C77.0182936,113.043435 72.1137182,116.382949 67.5836784,122.022275 Z" id="Stroke-5"></path>
                        <path d="M58.042389,103.382044 C47.0677941,115.790866 44.6467482,132.772295 43.7868805,148.066916 C43.2148551,158.292221 42.8879834,168.91756 47.9666913,178.029438 C53.1576088,187.340222 63.157687,193.400732 73.8273643,197.437738 C76.8143373,198.565611 79.8891265,199.536804 82.9980666,200.341316 C97.2145456,204.027182 112.256742,203.921617 127.002558,204.390546 C137.144118,204.712795 147.706464,204.489443 156.93693,200.574669 C164.71111,197.277725 170.896059,191.445012 175.268577,184.892238 C179.642315,178.338353 182.336568,171.064407 184.461234,163.728234 C187.860455,151.988357 188.971575,139.817333 188.719103,127.740761 C188.420284,113.44178 185.053993,98.2616129 174.647765,86.5084014 C167.956653,78.9488763 159.52629,73.4184108 150.022618,70.3692652 C142.174039,67.8501643 128.767421,65.3899572 120.437071,67.1556614 C116.18652,68.0568484 112.345777,70.0181246 108.589192,72.0338498 C98.1854033,77.5854282 87.8243026,85.6172153 77.1997531,90.5876337 C69.4011801,94.2357185 63.6284798,97.0659567 58.042389,103.382044 Z" id="Stroke-7"></path>
                        <path d="M47.6132672,84.7442012 C33.35797,99.7466911 30.6530311,120.922629 29.2602441,139.843589 C28.3304976,152.490114 27.5888997,165.679299 33.5192401,177.13619 C39.2125625,188.133651 50.3401976,195.831873 62.6052755,200.939978 C66.0383733,202.367095 69.5814279,203.593351 73.1709088,204.608757 C89.5960216,209.259651 107.084051,209.886651 124.266644,210.186279 C137.060737,210.409335 150.400948,210.653477 161.995289,205.684089 C171.759459,201.499283 179.417344,193.974179 184.67817,185.524667 C189.936552,177.076264 192.97747,167.703453 195.290229,158.286253 C198.990889,143.21385 200.238288,127.67314 198.735545,112.33662 C197.098409,95.6129331 191.335447,78.4298165 178.543798,65.480334 C170.762517,57.6034442 161.078982,51.7429406 150.347192,48.549127 C141.873182,46.0255926 126.28252,43.002678 117.501853,45.0434783 C112.798143,46.136566 108.641773,48.5335908 104.586808,50.9417129 C93.4054162,57.554616 82.1446111,66.8530746 69.9772727,71.7902798 C60.9742486,75.4102311 54.279097,77.7284648 47.6132672,84.7442012 Z" id="Stroke-9"></path>
                        <path d="M37.1825364,66.297945 C19.6291667,83.9244759 16.685487,109.44242 14.7617129,132.084585 C13.4755325,147.214989 12.343254,163.027875 19.0905099,176.891289 C25.290559,189.629107 37.5123263,199.0035 51.3525067,205.20819 C55.2220408,206.942787 59.2295982,208.429107 63.2933419,209.66047 C81.8971534,215.29958 101.806688,216.189145 121.390098,216.794806 C136.807162,217.272433 152.914342,217.634271 166.85346,211.58545 C178.590314,206.491881 187.707171,197.235503 193.844926,186.849076 C199.983903,176.461536 203.366081,164.943948 205.861491,153.397412 C209.856834,134.91917 211.326231,115.887593 208.487595,97.2557089 C205.54758,77.9658356 197.389556,58.7193829 182.202123,44.5497986 C173.360091,36.2998874 162.42939,30.0918571 150.487333,26.7473587 C141.403455,24.2022444 123.657098,20.6139227 114.440082,22.9330273 C109.292918,24.2278514 104.827319,27.0691164 100.478979,29.8814343 C88.5442509,37.5869181 76.4140919,48.2205081 62.7143775,53.1236942 C52.5312,56.7487563 44.9106117,58.5367938 37.1825364,66.297945 Z" id="Stroke-11"></path>
                        <path d="M1.33551399,123.769172 C-0.303754473,141.306482 -1.81241853,159.660489 5.73456355,175.865528 C14.3202779,194.305093 33.6912314,207.166676 54.4634361,213.766919 C75.2356407,220.367161 97.5519068,221.519425 119.530066,222.422792 C137.557137,223.16393 156.422761,223.630614 172.697047,216.531465 C186.401967,210.554579 196.97238,199.614177 203.984738,187.340393 C210.998317,175.067721 214.719933,161.461666 217.399154,147.8445 C221.683467,126.051478 223.426487,103.593987 219.201983,81.790965 C214.9787,59.9890539 204.437582,38.7904983 186.843824,23.5043818 C176.950845,14.9085109 164.77412,8.39271622 151.627016,4.92147774 C141.937877,2.36249496 122.048168,-1.76321198 112.395648,0.817993839 C106.810173,2.31138197 102.036398,5.5781685 97.3981109,8.78161938 C84.7136151,17.5419408 71.7227481,29.4557113 56.4957384,34.2981112 C45.1404781,37.910466 36.5962642,39.1494003 27.8103711,47.6241557 C6.94662133,67.7548944 3.79014459,97.5182087 1.33551399,123.769172 Z" id="Stroke-13"></path>
                    </g>
                </g>
            </g>
        </g>
    </g>
</svg>